<svg xmlns="http://www.w3.org/2000/svg" viewBox="0 0 1712 668"><title>Tru editorial wordmark</title><g fill="#ffffff"><g transform="translate(-20 652) scale(1 -1)"><path transform="translate(0 0)" d="M20 463H114L131 593H222C224 509 224 425 224 342V310C224 228 224 147 223 67L144 59V0H503V59L423 67C422 148 422 229 422 311V342C422 427 422 511 424 593H516L533 463H626L625 652H22Z"/><path transform="translate(646 0)" d="M21 0H339V51L261 68C260 115 260 171 260 210V273C268 318 295 364 319 391L324 384C350 346 375 329 408 329C448 329 481 360 484 414C477 475 440 503 391 503C343 503 286 462 260 376L252 492L234 503L13 434V393L67 384C69 344 70 328 70 273V210C70 169 70 110 69 62L21 51Z"/><path transform="translate(1129 0)" d="M371 -12 603 -1V50L557 60V343L560 487L542 498L321 458V418L369 407L365 126C344 106 321 91 301 91C275 91 257 107 257 159V343L262 487L244 498L17 463V418L69 406L65 164C63 32 123 -16 211 -16C275 -16 327 15 367 67Z"/></g></g></svg>
